<svg xmlns="http://www.w3.org/2000/svg" viewBox="0 0 48 48" width="48px" height="48px">
  <path fill="#4CAF50" d="M45,35c0,2.209-1.791,4-4,4H7c-2.209,0-4-1.791-4-4V13c0-2.209,1.791-4,4-4h34c2.209,0,4,1.791,4,4V35z"/>
  <path fill="#FFF" d="M24,15c-4.971,0-9,4.029-9,9s4.029,9,9,9s9-4.029,9-9S28.971,15,24,15z M24,30c-3.316,0-6-2.684-6-6s2.684-6,6-6s6,2.684,6,6S27.316,30,24,30z"/>
  <path fill="#FFF" d="M24,20c-2.209,0-4,1.791-4,4s1.791,4,4,4s4-1.791,4-4S26.209,20,24,20z M24,26c-1.105,0-2-0.895-2-2s0.895-2,2-2s2,0.895,2,2S25.105,26,24,26z"/>
  <path fill="#FFF" d="M16,19H8v2h8V19z M40,19h-8v2h8V19z M16,27H8v2h8V27z M40,27h-8v2h8V27z"/>
</svg>

